<svg width="64" height="64" viewBox="0 0 64 64" fill="none" xmlns="http://www.w3.org/2000/svg">
<path fill-rule="evenodd" clip-rule="evenodd" d="M22.666 29.2664C22.666 24.1167 26.8496 19.9331 31.9993 19.9331C37.1491 19.9331 41.3327 24.1167 41.3327 29.2664C41.3327 31.9939 40.1579 34.4394 38.2995 36.1409L37.3327 38.2861V43.9331L26.666 43.9331V38.2861L25.6992 36.1409C23.8408 34.4394 22.666 31.9939 22.666 29.2664ZM29.3327 39.3328V41.2664L34.666 41.2664V39.3328H29.3327ZM35.1378 36.6662L36.1078 34.514L36.3335 34.3205C37.763 33.0951 38.666 31.2888 38.666 29.2664C38.666 25.5895 35.6763 22.5998 31.9993 22.5998C28.3224 22.5998 25.3327 25.5895 25.3327 29.2664C25.3327 31.2888 26.2357 33.0951 27.6652 34.3205L27.8909 34.514L28.8609 36.6662H35.1378Z" fill="#333230"/>
<path fill-rule="evenodd" clip-rule="evenodd" d="M35.9997 54.6667H5.33301V52H35.9997V54.6667Z" fill="#333230"/>
<path fill-rule="evenodd" clip-rule="evenodd" d="M58.6667 54.6667L44 54.6667L44 52L58.6667 52L58.6667 54.6667Z" fill="#333230"/>
<path fill-rule="evenodd" clip-rule="evenodd" d="M37.333 54.6668C38.0694 54.6668 38.6663 54.0699 38.6663 53.3335C38.6663 52.5971 38.0694 52.0002 37.333 52.0002C36.5966 52.0002 35.9997 52.5971 35.9997 53.3335C35.9997 54.0699 36.5966 54.6668 37.333 54.6668ZM37.333 57.3335C39.5421 57.3335 41.333 55.5426 41.333 53.3335C41.333 51.1244 39.5421 49.3335 37.333 49.3335C35.1239 49.3335 33.333 51.1244 33.333 53.3335C33.333 55.5426 35.1239 57.3335 37.333 57.3335Z" fill="#333230"/>
<path fill-rule="evenodd" clip-rule="evenodd" d="M53.333 30.6667H45.333V28H53.333V30.6667Z" fill="#333230"/>
<path fill-rule="evenodd" clip-rule="evenodd" d="M33.3327 8L33.3327 16L30.666 16L30.666 8L33.3327 8Z" fill="#333230"/>
<path fill-rule="evenodd" clip-rule="evenodd" d="M18.666 30.6667H10.666V28H18.666V30.6667Z" fill="#333230"/>
<path fill-rule="evenodd" clip-rule="evenodd" d="M47.9979 15.2206C47.4091 14.5536 46.7792 13.9238 46.1122 13.335L40.4377 19.0095C41.1272 19.5737 41.7591 20.2056 42.3233 20.8951L47.9979 15.2206ZM21.6755 20.8951L16.001 15.2206C16.5898 14.5536 17.2196 13.9238 17.8866 13.335L23.5611 19.0095C22.8716 19.5737 22.2397 20.2056 21.6755 20.8951Z" fill="#333230"/>
</svg>
