<svg width="64" height="64" viewBox="0 0 64 64" fill="none" xmlns="http://www.w3.org/2000/svg">
<path fill-rule="evenodd" clip-rule="evenodd" d="M24.0003 10.6667C18.1093 10.6667 13.3337 15.4423 13.3337 21.3333V58.6667H10.667V21.3333C10.667 13.9695 16.6365 8 24.0003 8H33.3337V10.6667H24.0003Z" fill="#333230"/>
<path fill-rule="evenodd" clip-rule="evenodd" d="M42.6667 8.00016H37.3333C35.8606 8.00016 34.6667 9.19407 34.6667 10.6668H45.3333C45.3333 9.19407 44.1394 8.00016 42.6667 8.00016ZM37.3333 5.3335C34.3878 5.3335 32 7.72131 32 10.6668V13.3335H48V10.6668C48 7.72131 45.6122 5.3335 42.6667 5.3335H37.3333Z" fill="#333230"/>
<path fill-rule="evenodd" clip-rule="evenodd" d="M42.667 13.3337L37.3337 13.3337C37.3337 14.8064 38.5276 16.0003 40.0003 16.0003C41.4731 16.0003 42.667 14.8064 42.667 13.3337ZM34.667 10.667V13.3337C34.667 16.2792 37.0548 18.667 40.0003 18.667C42.9458 18.667 45.3337 16.2792 45.3337 13.3337V10.667H34.667Z" fill="#333230"/>
<path fill-rule="evenodd" clip-rule="evenodd" d="M26.6673 35.3164L21.6174 39.3337L26.6673 43.3509V53.3337H50.6673V25.3337H26.6673V35.3164ZM17.334 39.3337L24.0007 34.0302V22.667H53.334V56.0003H24.0007V44.6371L17.334 39.3337Z" fill="#333230"/>
<path d="M29.334 29.3335H33.334V33.3335H29.334V29.3335Z" fill="#333230"/>
<path d="M29.334 37.3335H33.334V41.3335H29.334V37.3335Z" fill="#333230"/>
<path d="M29.334 45.3335H33.334V49.3335H29.334V45.3335Z" fill="#333230"/>
<path d="M36 30.667H48V33.3337H36V30.667Z" fill="#333230"/>
<path d="M36 38.667H48V41.3337H36V38.667Z" fill="#333230"/>
<path d="M36 46.667H48V49.3337H36V46.667Z" fill="#333230"/>
</svg>
