<svg width="64" height="64" viewBox="0 0 64 64" fill="none" xmlns="http://www.w3.org/2000/svg">
<path fill-rule="evenodd" clip-rule="evenodd" d="M30.3706 14.9234C24.6429 9.19568 15.3565 9.19568 9.62878 14.9234L7.74316 13.0378C14.5123 6.26867 25.4871 6.26867 32.2562 13.0378L30.3706 14.9234ZM14.3436 19.6376C17.4678 16.5134 22.5331 16.5134 25.6573 19.6376L27.543 17.7519C23.3774 13.5864 16.6236 13.5864 12.458 17.7519L14.3436 19.6376ZM21.333 25.2943V38.6276H18.6663V25.2943C18.6663 24.5579 19.2633 23.9609 19.9997 23.9609C20.7361 23.9609 21.333 24.5579 21.333 25.2943ZM15.9997 38.6276V25.2943C15.9997 23.0851 17.7905 21.2943 19.9997 21.2943C22.2088 21.2943 23.9997 23.0851 23.9997 25.2943V38.6276H30.9924C30.7795 37.7871 30.6663 36.9067 30.6663 36C30.6663 30.109 35.442 25.3333 41.333 25.3333C47.224 25.3333 51.9997 30.109 51.9997 36C51.9997 36.95 51.8755 37.8709 51.6425 38.7475C53.3798 39.1832 54.6663 40.7552 54.6663 42.6276V51.9609C54.6663 54.1701 52.8755 55.9609 50.6663 55.9609H13.333C11.1239 55.9609 9.33301 54.1701 9.33301 51.9609V42.6276C9.33301 40.4185 11.1239 38.6276 13.333 38.6276H15.9997ZM23.9997 41.2943H32.0709C33.9096 44.5041 37.3687 46.6667 41.333 46.6667C45.2973 46.6667 48.7565 44.5041 50.5951 41.2943H50.6663C51.4027 41.2943 51.9997 41.8912 51.9997 42.6276V51.9609C51.9997 52.6973 51.4027 53.2943 50.6663 53.2943H13.333C12.5966 53.2943 11.9997 52.6973 11.9997 51.9609V42.6276C11.9997 41.8912 12.5966 41.2943 13.333 41.2943H15.9997H23.9997ZM41.333 44C45.7513 44 49.333 40.4183 49.333 36C49.333 31.5817 45.7513 28 41.333 28C36.9147 28 33.333 31.5817 33.333 36C33.333 40.4183 36.9147 44 41.333 44ZM19.9997 45.3333H15.9997V49.3333H19.9997V45.3333ZM22.6663 45.3333H26.6663V49.3333H22.6663V45.3333ZM36.9426 35.0571L39.771 37.8855L45.0894 32.5671L46.975 34.4527L39.771 41.6567L35.057 36.9427L36.9426 35.0571Z" fill="#333230"/>
</svg>
