<svg width="180" height="52" viewBox="0 0 180 52" fill="none" xmlns="http://www.w3.org/2000/svg">
<path d="M32.1336 9.10572C29.8559 6.6857 30.3683 4.38515 27.0081 2.84124C21.1278 0.139471 17.2558 4.51129 13.2136 7.96672C6.79305 13.4552 3.04383 21.5616 2.07673 30.0506C1.56501 34.5424 3.57 43.2319 9.38528 43.8135C16.7158 44.5465 22.0362 40.2296 28.1154 37.0111C33.0427 34.4026 37.4497 30.7983 40.9608 26.5071C43.4494 23.4654 42.3845 30.3251 42.3845 31.9173C42.3845 34.4334 40.8329 45.7957 43.5235 46.6926" stroke="#EDB03B" stroke-width="3" stroke-linecap="round"/>
<path d="M46.9406 6.82775C46.9406 7.3205 46.2457 8.94787 46.6875 9.0741C48.2392 9.51743 49.5939 10.1996 51.2435 10.5295C53.1437 10.9095 55.1181 11.4533 57.065 11.3837C58.5248 11.3316 59.3354 10.0996 60.6086 9.67524" stroke="#EDB03B" stroke-width="3" stroke-linecap="round"/>
<path d="M58.8999 26.7602C56.0985 27.0403 59.8401 27.3297 60.735 27.3297C63.791 27.3297 67.0255 26.9946 70.0368 26.4754C72.6306 26.0282 81.478 26.0248 82.8188 23.3432" stroke="#EDB03B" stroke-width="3" stroke-linecap="round"/>
<path d="M73.1378 19.3567C70.7534 20.0273 70.8598 20.5889 70.8598 22.8053C70.8598 25.384 70.5184 27.8773 70.1638 30.4303C69.5241 35.0361 67.2353 42.8561 72.6 45.8067C84.1114 52.138 95.8457 32.8743 102.688 26.7918C105.096 24.6515 105.901 25.7473 104.745 28.7534C103.703 31.463 103.788 34.8196 103.891 37.7072C104.017 41.2546 106.872 43.4357 110.155 42.7061C112.127 42.2679 116.989 40.0018 116.989 37.5806" stroke="#EDB03B" stroke-width="3" stroke-linecap="round"/>
<path d="M104.459 6.25822C100.888 9.8297 107.841 12.5227 110.724 12.5227" stroke="#EDB03B" stroke-width="3" stroke-linecap="round"/>
<path d="M124.962 30.7467C124.52 30.7467 121.899 31.4621 123.063 31.8857C124.648 32.4619 126.28 32.4552 127.936 32.4552C132.307 32.4552 137.622 30.2244 140.781 27.2031C141.74 26.2861 146.651 19.8922 144.325 18.6607C141.216 17.0151 137.361 19.5798 134.643 20.9386C129.701 23.4095 126.958 25.9717 125.658 31.3162C124.704 35.2385 126.391 37.367 128.822 40.4281C131.903 44.3083 138.438 43.3867 142.743 42.5796C146.516 41.8722 151.697 41.5978 154.576 38.7196" stroke="#EDB03B" stroke-width="3" stroke-linecap="round"/>
<path d="M176.216 18.2177C173.059 18.5335 164.257 23.2898 164.257 27.0449C164.257 30.8776 172.527 31.5384 175.33 32.7399C181.922 35.5649 174.435 43.1954 171.217 45.427C168.562 47.2684 153.251 54.6523 156.284 45.5536" stroke="#EDB03B" stroke-width="3" stroke-linecap="round"/>
</svg>
