<svg width="314" height="52" viewBox="0 0 314 52" fill="none" xmlns="http://www.w3.org/2000/svg">
<path d="M11.387 2C10.0871 2.1625 10.6925 6.65114 10.5609 7.55742C9.4477 15.2263 7.28063 22.781 5.67942 30.3503C4.63145 35.3044 3.59312 40.2561 2.60031 45.2202C2.41738 46.1348 1.34619 49.7937 2.60031 47.2854" stroke="#EDB03B" stroke-width="3" stroke-linecap="round"/>
<path d="M22.8777 27.0083C21.8913 27.1316 21.8397 30.9876 21.5259 31.8898C20.1879 35.7364 19.3234 40.2883 18.2966 44.2813C17.477 47.4686 19.6965 42.7321 20.1741 42.0283C22.2334 38.9935 24.4473 36.1945 27.0833 33.6171C31.3441 29.451 39.9108 22.4473 38.2732 33.0914C37.7693 36.3671 37.1658 39.9334 37.0716 43.2299C37.0207 45.0135 37.0716 46.5353 37.0716 43.9058" stroke="#EDB03B" stroke-width="3" stroke-linecap="round"/>
<path d="M72.894 8.08307C70.3188 13.5554 70.139 20.725 69.2141 26.6704C68.598 30.6311 67.4868 35.1659 67.4868 39.1746C67.4868 41.6082 67.5752 38.1397 67.4493 37.4473C67.0666 35.3427 66.936 32.537 65.7595 30.6882C58.5068 19.2911 40.4414 50.6721 55.4708 49.989C60.4298 49.7636 66.6663 44.7014 70.5284 41.8406C74.5459 38.8647 79.7701 36.4171 82.8824 32.4155C83.2142 31.989 87.3689 26.1329 87.7263 27.3838C88.2263 29.1336 87.088 31.2746 87.088 33.0914C87.088 38.3412 85.7858 47.2103 93.509 47.2103C98.2739 47.2103 102.036 40.0497 106.689 38.4987" stroke="#EDB03B" stroke-width="3" stroke-linecap="round"/>
<path d="M87.0879 12.1385C82.7729 12.8577 95.5555 14.8421 99.9301 14.8421" stroke="#EDB03B" stroke-width="3" stroke-linecap="round"/>
<path d="M110.744 27.0083C110.744 31.2644 110.715 45.2117 116.189 45.896C120.8 46.4723 124.768 42.1283 127.642 39.1745C130.937 35.7875 134.498 32.4353 137.405 28.6981C138.935 26.7302 138.001 29.6621 137.63 30.9135C136.591 34.4214 136.428 38.2116 136.428 41.8781C136.428 44.6874 136.706 46.6095 139.808 46.6095C142.875 46.6095 145.863 41.9064 147.919 39.8504C150.826 36.9429 153.452 34.1091 154.678 30.125C155.601 27.1244 156.063 29.328 155.504 31.2139C154.012 36.2496 155.355 43.0427 160.085 45.4079C164.2 47.4652 166.563 46.3803 169.548 43.2299C171.305 41.3745 173.065 39.1692 174.654 37.1468C175.519 36.0461 181.857 31.2482 177.658 33.7673" stroke="#EDB03B" stroke-width="3" stroke-linecap="round"/>
<path d="M151.299 10.1108C149.314 9.18456 154.333 13.2327 155.392 13.8283C157.712 15.1335 160.221 14.8421 162.789 14.8421" stroke="#EDB03B" stroke-width="3" stroke-linecap="round"/>
<path d="M206.047 5.37947C206.047 2.98158 205.151 7.90456 204.995 8.45858C203.764 12.8575 202.165 17.098 201.316 21.6011C199.948 28.8483 197.26 36.7851 197.26 44.2063C197.26 48.3465 196 41.0161 195.871 39.8505C195.478 36.3165 193.152 31.8508 189.149 31.7396C184.483 31.61 182.849 32.4668 179.687 35.7951C177.653 37.9358 174.562 42.1605 177.321 44.9197C185.12 52.7186 196.199 42.451 200.302 35.1567C200.988 33.9361 203.485 31.0637 205.033 31.0637C207.56 31.0637 207.522 34.512 208.225 36.6212C209.161 39.4298 210.53 43.7093 213.482 45.1075C216.974 46.7618 222.079 41.4495 223.958 39.137C225.923 36.7185 227.108 31.5178 229.366 29.7119C230.782 28.5785 231.055 33.1621 231.055 34.5935C231.055 38.6096 233.089 43.5596 236.8 45.5581C240.317 47.4517 239.395 45.9458 238.49 43.23" stroke="#EDB03B" stroke-width="3" stroke-linecap="round"/>
<path d="M267.554 30.3879C267.554 28.5579 268.306 25.1519 266.502 24.0043C262.43 21.4131 256.514 25.9486 253.698 28.3977C249.504 32.0446 246.397 36.7102 246.601 42.4039C246.724 45.8465 252.545 46.0113 254.712 44.9573C259.485 42.6352 263.369 38.1083 267.178 34.4808C269.331 32.4305 269.581 29.0317 269.581 33.0915C269.581 35.7291 268.953 39.1979 269.732 41.728C270.755 45.0543 272.636 42.7298 270.933 41.8782" stroke="#EDB03B" stroke-width="3" stroke-linecap="round"/>
<path d="M288.507 7.40714C288.289 5.66562 286.667 12.9846 286.479 13.7907C284.764 21.1551 283.624 29.1902 283.137 36.7338C282.947 39.6888 282.424 42.6623 282.424 45.5956C282.424 49.1962 282.256 46.2692 283.1 44.5817" stroke="#EDB03B" stroke-width="3" stroke-linecap="round"/>
<path d="M312.164 22.2771C309.141 23.3652 306.271 25.5224 303.377 27.0084C301.434 28.0063 297.544 30.04 297.294 32.4156C297.06 34.6337 296.511 35.0244 299.171 35.9453C301.394 36.7149 303.944 37.2218 305.93 38.4987C310.511 41.4438 310.75 45.7113 305.93 48.6373C301.562 51.2896 296.469 48.4881 293.238 45.2577" stroke="#EDB03B" stroke-width="3" stroke-linecap="round"/>
</svg>
