<svg width="113" height="52" viewBox="0 0 113 52" fill="none" xmlns="http://www.w3.org/2000/svg">
<path d="M2 5.28449C2 11.1468 4.39722 26.4736 13.4337 23.3108C17.6668 21.8292 21.7305 16.6359 24.3578 13.183C26.759 10.027 27.9244 5.8434 28.9758 2.16332C29.1596 1.52008 29.4109 2.93322 28.944 3.69205C28.2013 4.89891 27.9396 6.29337 27.4789 7.60944C25.3689 13.6382 21.2947 18.7072 19.1983 24.7759C16.339 33.0526 15.7586 41.3321 15.7586 50" stroke="#EDB03B" stroke-width="3" stroke-linecap="round"/>
<path d="M61.7353 27.6421C62.2005 27.7085 61.1765 29.3837 61.0346 29.9352C60.5461 31.8351 60.2106 33.7329 59.8881 35.668C59.4524 38.282 58.2071 44.7518 60.3021 46.8468C66.4909 53.0356 73.5237 42.1862 76.1946 37.8337C77.9426 34.9851 80.0103 32.1877 81.6726 29.3619C82.598 27.7886 82.3732 32.4964 82.3732 33.0882C82.3732 37.1242 82.2646 46.5602 88.106 46.5602" stroke="#EDB03B" stroke-width="3" stroke-linecap="round"/>
<path d="M109.89 4.13794C110.393 4.71208 109.795 6.27115 109.604 7.03617C108.77 10.3697 108.539 13.9099 107.916 17.2914C107.228 21.0235 107.024 24.9847 107.024 28.7888" stroke="#EDB03B" stroke-width="3" stroke-linecap="round"/>
<path d="M107.024 41.9741C104.572 41.9741 106.545 44.3393 107.597 45.8597C108.573 47.2688 109.65 48.5022 111.037 49.4267" stroke="#EDB03B" stroke-width="3" stroke-linecap="round"/>
<path d="M34.5786 27.5231C31.9733 26.3832 30.1104 40.8005 29.8429 43.2077C28.9737 51.0308 38.9031 48.9811 42.7619 46.087C45.7658 43.8341 47.5387 40.8031 48.2174 37.0702C48.5359 35.3189 50.0681 30.1314 48.5205 28.5838C45.4627 25.526 37.6152 26.6095 34.5786 28.8869" stroke="#EDB03B" stroke-width="3" stroke-linecap="round"/>
</svg>
