<svg width="40" height="40" viewBox="0 0 40 40" fill="none" xmlns="http://www.w3.org/2000/svg">
<path d="M20 33.5999C12.48 33.5999 6.40002 27.5199 6.40002 19.9999C6.40002 12.4799 12.48 6.3999 20 6.3999C27.52 6.3999 33.6 12.4799 33.6 19.9999C33.6 27.5199 27.52 33.5999 20 33.5999ZM20 7.9999C13.36 7.9999 8.00002 13.3599 8.00002 19.9999C8.00002 26.6399 13.36 31.9999 20 31.9999C26.64 31.9999 32 26.6399 32 19.9999C32 13.3599 26.64 7.9999 20 7.9999Z" fill="white"/>
<path d="M20 27.5199L12.24 19.7599L13.36 18.6399L20 25.2799L26.64 18.6399L27.76 19.7599L20 27.5199Z" fill="white"/>
<path d="M19.2 12.8H20.8V26.4H19.2V12.8Z" fill="white"/>
</svg>
