<svg width="40" height="40" viewBox="0 0 40 40" fill="none" xmlns="http://www.w3.org/2000/svg">
<path d="M20 6.4001C12.48 6.4001 6.40002 12.4801 6.40002 20.0001C6.40002 27.5201 12.48 33.6001 20 33.6001C27.52 33.6001 33.6 27.5201 33.6 20.0001C33.6 12.4801 27.52 6.4001 20 6.4001ZM20 32.0001C13.36 32.0001 8.00002 26.6401 8.00002 20.0001C8.00002 13.3601 13.36 8.0001 20 8.0001C26.64 8.0001 32 13.3601 32 20.0001C32 26.6401 26.64 32.0001 20 32.0001Z" fill="white"/>
<path d="M20 12.4801L12.24 20.2401L13.36 21.3601L20 14.7201L26.64 21.3601L27.76 20.2401L20 12.4801Z" fill="white"/>
<path d="M19.2 27.2H20.8V13.6H19.2V27.2Z" fill="white"/>
</svg>
